<svg xmlns="http://www.w3.org/2000/svg" fill="none" viewBox="0 0 49 49">
  <path fill="#4285F4" d="M16.083 36.455a2.01 2.01 0 0 0 2.004-2.004V14.41a2.01 2.01 0 0 0-2.004-2.005 2.01 2.01 0 0 0-2.004 2.005v20.04a2.01 2.01 0 0 0 2.004 2.004v.001zm8.016 8.017a2.01 2.01 0 0 0 2.004-2.005V6.394A2.01 2.01 0 0 0 24.1 4.39a2.01 2.01 0 0 0-2.004 2.004v36.075a2.01 2.01 0 0 0 2.004 2.004l-.001-.001zM8.066 28.438a2.01 2.01 0 0 0 2.004-2.004v-4.008a2.01 2.01 0 0 0-2.004-2.004 2.01 2.01 0 0 0-2.004 2.004v4.008a2.01 2.01 0 0 0 2.004 2.005v-.001zm24.05 8.017a2.01 2.01 0 0 0 2.004-2.004V14.41a2.01 2.01 0 0 0-2.004-2.005 2.01 2.01 0 0 0-2.004 2.005v20.04a2.01 2.01 0 0 0 2.004 2.004v.001zm6.012-14.029v4.008a2.01 2.01 0 0 0 2.004 2.005 2.01 2.01 0 0 0 2.005-2.005v-4.008a2.01 2.01 0 0 0-2.005-2.004 2.01 2.01 0 0 0-2.004 2.004z"/>
</svg>
