<svg xmlns="http://www.w3.org/2000/svg" fill="none" viewBox="0 0 124 23"><g clip-path="url(#clip0)"><path fill="#443F3F" d="M8.188 7.77c1.713 0 3.135.882 3.812 1.833V8.005h2.61v11.863H12.73a.742.742 0 01-.745-.744v-.855c-.663.965-2.085 1.847-3.798 1.847-3.258 0-5.73-2.784-5.73-6.173 0-3.39 2.472-6.172 5.73-6.172zm.47 2.37c-2.113 0-3.549 1.668-3.549 3.803 0 2.136 1.422 3.803 3.549 3.803 2.113 0 3.549-1.667 3.549-3.803 0-2.135-1.423-3.803-3.55-3.803zm8.92-2.135h2.624v1.612c.718-1.185 2.071-1.846 3.618-1.846 2.761 0 4.543 1.942 4.543 4.96v7.137h-1.878a.742.742 0 01-.746-.744v-5.966c0-1.874-.953-3.018-2.472-3.018-1.74 0-3.065 1.35-3.065 3.886v5.842h-1.878a.742.742 0 01-.746-.744V8.004zm18.586-.234c1.713 0 3.135.881 3.811 1.832V2.08h2.61v17.801h-1.878a.742.742 0 01-.745-.744v-.854c-.663.95-2.1 1.833-3.811 1.833-3.26 0-5.73-2.784-5.73-6.173.013-3.39 2.485-6.172 5.743-6.172zm.47 2.37c-2.113 0-3.549 1.667-3.549 3.802 0 2.136 1.422 3.803 3.549 3.803 2.113 0 3.549-1.667 3.549-3.803 0-2.135-1.436-3.803-3.55-3.803zm8.92-2.136h2.61v2.108c.456-1.35 1.781-2.232 3.134-2.232.332 0 .663.027 1.022.096v2.687c-.455-.138-.828-.22-1.312-.22-1.505 0-2.858 1.253-2.858 3.637v5.787h-1.878a.742.742 0 01-.745-.744V8.004h.027zm13.836 12.11c-3.521 0-6.227-2.727-6.227-6.172 0-3.444 2.706-6.172 6.227-6.172 3.521 0 6.228 2.728 6.228 6.172 0 3.445-2.707 6.173-6.228 6.173zm0-2.424c2.1 0 3.563-1.64 3.563-3.748 0-2.108-1.478-3.747-3.563-3.747-2.112 0-3.59 1.64-3.59 3.747 0 2.108 1.478 3.748 3.59 3.748zm9.652-12.276a1.763 1.763 0 01-1.753-1.75c0-.95.814-1.736 1.753-1.736.98 0 1.74.785 1.74 1.736 0 .978-.76 1.75-1.74 1.75zm-1.298 2.59h2.61v11.863H68.49a.742.742 0 01-.746-.744V8.004zM78.24 7.77c1.712 0 3.134.881 3.81 1.832V2.08h2.61v17.801h-1.877a.742.742 0 01-.746-.744v-.854c-.663.95-2.099 1.833-3.811 1.833-3.259 0-5.73-2.784-5.73-6.173.013-3.39 2.485-6.172 5.744-6.172zm.483 2.37c-2.113 0-3.549 1.667-3.549 3.802 0 2.136 1.423 3.803 3.55 3.803 2.112 0 3.548-1.667 3.548-3.803 0-2.135-1.436-3.803-3.549-3.803z"/><path fill="#39D972" d="M113.533 15.39a1.324 1.324 0 110-2.646c.732 0 1.326.593 1.326 1.323s-.594 1.323-1.326 1.323zm-14.595 0a1.325 1.325 0 01-1.326-1.323 1.325 1.325 0 012.651 0c0 .73-.594 1.323-1.325 1.323zm15.065-7.936l2.651-4.56a.547.547 0 00-.953-.537l-2.679 4.615a16.21 16.21 0 00-6.78-1.46c-2.444 0-4.75.523-6.794 1.446L96.77 2.342a.547.547 0 00-.953.538l2.637 4.56c-4.529 2.466-7.636 7.04-8.091 12.455h31.718c-.442-5.4-3.535-9.975-8.078-12.441z"/></g><defs><clipPath id="clip0"><path fill="#fff" d="M0 0h124v22.044H0z"/></clipPath></defs></svg>